<?xml version="1.0" encoding="UTF-8" standalone="no"?><!DOCTYPE svg PUBLIC "-//W3C//DTD SVG 1.1//EN" "http://www.w3.org/Graphics/SVG/1.1/DTD/svg11.dtd"><svg width="100%" height="100%" viewBox="0 0 1880 611" version="1.1" xmlns="http://www.w3.org/2000/svg" xmlns:xlink="http://www.w3.org/1999/xlink" xml:space="preserve" xmlns:serif="http://www.serif.com/" style="fill-rule:evenodd;clip-rule:evenodd;stroke-linejoin:round;stroke-miterlimit:2;"><g><path d="M1462.75,293.736l411.333,-0l-81.08,202.804l-99.555,0l10.468,-26.274l-18.679,-0l-10.469,26.274l-99.554,0l42.124,-105.097l-40.482,0l-42.08,105.097l-112.692,0l42.08,-105.097l-40.5,0l-42.018,105.097l-474.373,0l28.885,-72.067l-27.448,19.519l-65.481,-0l-20.937,52.548l-99.555,0l72,-179.634l-139.1,-0l81.241,-202.694l99.296,0l-42.057,105.04l69.708,-0l42.101,-105.04l628.597,0l-71.773,179.524Zm-656.263,179.404l20.937,-52.549l73.896,0l34.485,-24.632l24.427,-60.759l-10.879,-18.064l-129.524,0l-62.607,156.004l49.265,-0Zm184.535,-0l62.401,-156.004l-49.058,0l-62.607,156.004l49.264,-0Zm527.948,-0l42.08,-105.097l52.549,-0l20.321,-50.907l-167.293,0l-20.527,50.907l52.549,-0l-42.08,105.097l62.401,-0Zm-360.45,-0l20.322,-50.907l-80.054,0l42.079,-105.097l-49.059,0l-62.606,156.004l129.318,-0Zm500.443,-0l10.468,-26.275l68.97,0l-10.468,26.275l49.264,-0l62.401,-156.004l-167.293,0l-62.606,156.004l49.264,-0Zm-293.122,-0l62.401,-156.004l-167.293,0l-62.607,156.004l167.499,-0Zm-97.913,-50.907l21.758,-54.19l68.97,-0l-21.553,54.19l-69.175,0Zm-134.655,-23.4l69.746,-0l32.838,-81.927l-69.782,-0l-32.802,81.927Zm556.275,-2.874l11.495,-27.916l69.175,-0l-11.495,27.916l-69.175,-0Zm-846.319,-13.137l10.059,-27.917l49.264,0l-10.264,27.917l-49.059,-0Zm133.259,-65.916l1.674,2.77l1.11,-2.77l-2.784,-0Zm-157.137,-23.388l20.31,-50.879l-80.01,0l42.056,-105.039l-49.032,-0l-62.572,155.918l129.248,-0Zm618.338,-0l62.368,-155.918l-167.202,-0l-62.573,155.918l167.407,-0Zm-411.131,-0l62.367,-155.918l-167.202,-0l-62.572,155.918l167.407,-0Zm205.566,-0l36.107,-90.268l-88.422,-0l-9.848,24.618l39.39,0l-11.488,27.901l-68.933,0l32.21,-80.421l118.169,0l15.182,-37.748l-167.202,-0l-62.572,155.918l167.407,-0Zm58.621,-113.656l-126.733,-0l-28.722,71.394l39.185,-0l7.796,-18.874l-18.875,-0l13.541,-33.646l106.243,0l7.565,-18.874Zm49.085,62.777l21.747,-54.161l68.932,0l-21.541,54.161l-69.138,0Zm-411.131,0l21.746,-54.161l68.932,0l-21.541,54.161l-69.137,0Z" style="fill-rule:nonzero;stroke:#fff;stroke-width:10.36px;"/><g><circle cx="305.376" cy="305.376" r="279.471" style="fill:#dc1d23;stroke:#fff;stroke-width:51.81px;stroke-linecap:round;stroke-miterlimit:1.5;"/><circle cx="305.376" cy="305.376" r="279.471" style="fill:#dc1d23;stroke:#000;stroke-width:32.32px;stroke-linecap:round;stroke-miterlimit:1.5;"/><g><path d="M240.148,483.179l82.94,-227.417l187.5,-2.676l13.162,42.808l-37.457,88.291l-48.779,34.782l-87.671,-0l-26.755,66.887l-82.94,-2.675Z" style="fill:#fff;"/><path d="M281.681,356.329l30.705,-92.541l-90.966,-10.702l50.834,-125.748l-90.967,-2.675l-90.966,224.741l191.36,6.925Z" style="fill:#fff;"/><path d="M274.657,337.638l25.745,-64.492l-101.419,0l53.31,-133.145l-62.152,0l-79.315,197.637l163.831,0Zm-207.519,29.646l102.979,-256.928l125.864,-0l-53.31,133.145l101.419,-0l-49.409,123.783l-227.543,-0Z" style="fill-rule:nonzero;"/><path d="M315.811,470.751l26.525,-66.573l93.618,0l43.688,-31.206l30.946,-76.974l-13.783,-22.884l-164.09,-0l-79.315,197.637l62.411,-0Zm46.549,-114.422l12.743,-35.366l62.411,-0l-13.002,35.366l-62.152,0Zm-152.648,144.067l102.979,-256.928l200.758,0l30.165,49.93l-39.787,98.818l-58.511,41.608l-82.956,-0l-26.525,66.572l-126.123,0Z" style="fill-rule:nonzero;"/></g></g><g><g><path d="M839.746,305.376l76.431,-180.621l598.486,2.989l-64.257,177.632l-610.66,0Z" style="fill:#dc1d23;"/><path d="M745.313,125.937l-67.245,179.439l152.423,0l28.232,-74.088l-81.281,-0.747l35.864,-103.11l-67.993,-1.494Z" style="fill:#fff;"/><g><path d="M819.347,293.518l20.31,-50.879l-80.01,0l42.056,-105.039l-49.032,-0l-62.572,155.918l129.248,-0Zm-163.714,23.388l81.241,-202.694l99.296,0l-42.057,105.04l80.01,-0l-38.979,97.654l-179.511,-0Z" style="fill-rule:nonzero;"/><path d="M1026.55,293.518l62.367,-155.918l-167.202,-0l-62.572,155.918l167.407,-0Zm-97.859,-50.879l21.746,-54.161l68.932,0l-21.541,54.161l-69.137,0Zm-104.014,74.267l81.241,-202.694l217.465,0l-81.036,202.694l-217.67,-0Z" style="fill-rule:nonzero;"/><path d="M1232.12,293.518l36.107,-90.268l-88.422,-0l-9.848,24.618l39.39,0l-11.488,27.901l-68.933,0l32.21,-80.421l118.169,0l15.182,-37.748l-167.202,-0l-62.572,155.918l167.407,-0Zm-201.873,23.388l81.241,-202.694l217.67,0l-34.056,84.524l-118.169,0l-13.541,33.646l18.875,-0l-7.796,18.874l-39.185,-0l28.722,-71.394l138.685,-0l-54.776,137.044l-217.67,-0Z" style="fill-rule:nonzero;"/><path d="M1437.68,293.518l62.368,-155.918l-167.202,-0l-62.573,155.918l167.407,-0Zm-97.859,-50.879l21.747,-54.161l68.932,0l-21.541,54.161l-69.138,0Zm-104.014,74.267l81.242,-202.694l217.465,0l-81.037,202.694l-217.67,-0Z" style="fill-rule:nonzero;"/></g></g><g><path d="M954.891,411.149l16.596,-74.829l26.1,-30.944l160.669,0l-38.106,104.052l88.11,2.088l49.37,-106.14l594.003,0l-65.751,181.011l-72.476,-2.241l5.23,-21.668l-39.6,-2.989l-12.702,29.14l-74.717,-3.736l37.358,-102.071l-59.026,-0.821l-44.084,102.145l-85.925,-0.748l39.601,-101.397l-62.179,-4.889l-43.92,108.528l-447.557,-1.494l29.006,-72.997Z" style="fill:#dc1d23;"/><path d="M740.83,488.629l73.223,-183.253l135.939,0l21.495,30.944l-29.733,74.182l-39.206,22.523l-66.827,0.747l-22.415,54.857l-72.476,-0Z" style="fill:#fff;"/><g><path d="M806.483,473.14l20.937,-52.549l73.896,0l34.485,-24.632l24.427,-60.759l-10.879,-18.064l-129.524,0l-62.607,156.004l49.265,-0Zm36.742,-90.318l10.059,-27.917l49.264,0l-10.264,27.917l-49.059,-0Zm-120.492,113.718l81.286,-202.804l158.467,-0l23.811,39.411l-31.406,78.002l-46.185,32.843l-65.481,-0l-20.937,52.548l-99.555,0Z" style="fill-rule:nonzero;"/><path d="M991.018,473.14l62.401,-156.004l-49.058,0l-62.607,156.004l49.264,-0Zm-83.749,23.4l81.286,-202.804l99.349,-0l-81.08,202.804l-99.555,0Z" style="fill-rule:nonzero;"/><path d="M1158.52,473.14l20.322,-50.907l-80.054,0l42.079,-105.097l-49.059,0l-62.606,156.004l129.318,-0Zm-163.803,23.4l81.286,-202.804l99.349,-0l-42.079,105.097l80.054,-0l-39.001,97.707l-179.609,0Z" style="fill-rule:nonzero;"/><path d="M1365.84,473.14l62.401,-156.004l-167.293,0l-62.607,156.004l167.499,-0Zm-97.913,-50.907l21.758,-54.19l68.97,-0l-21.553,54.19l-69.175,0Zm-104.071,74.307l81.286,-202.804l217.584,-0l-81.081,202.804l-217.789,0Z" style="fill-rule:nonzero;"/><path d="M1518.97,473.14l42.08,-105.097l52.549,-0l20.321,-50.907l-167.293,0l-20.527,50.907l52.549,-0l-42.08,105.097l62.401,-0Zm-96.886,23.4l42.08,-105.097l-52.549,0l39.207,-97.707l217.583,-0l-39.001,97.707l-52.548,0l-42.08,105.097l-112.692,0Z" style="fill-rule:nonzero;"/><path d="M1658.96,473.14l10.468,-26.275l68.97,0l-10.468,26.275l49.264,-0l62.401,-156.004l-167.293,0l-62.606,156.004l49.264,-0Zm30.585,-77.181l11.495,-27.916l69.175,-0l-11.495,27.916l-69.175,-0Zm-114.334,100.581l81.286,-202.804l217.583,-0l-81.08,202.804l-99.555,0l10.468,-26.274l-18.679,-0l-10.469,26.274l-99.554,0Z" style="fill-rule:nonzero;"/></g></g></g></g></svg>